<svg width="64" height="64" viewBox="0 0 64 64" fill="none" xmlns="http://www.w3.org/2000/svg">
<rect width="64" height="64" fill="white"/>
<path d="M3 27.322C3 25.3068 3.37272 23.4356 4.11816 21.7083C4.8636 19.9571 5.89759 18.4337 7.22015 17.1382C8.5427 15.8428 10.1177 14.8352 11.9453 14.1155C13.7968 13.3718 15.8288 13 18.041 13C20.2293 13 22.2492 13.3718 24.1007 14.1155C25.9523 14.8352 27.5394 15.8428 28.8619 17.1382C30.2085 18.4337 31.2545 19.9571 32 21.7083C32.7454 23.4356 33.1181 25.3068 33.1181 27.322C33.1181 29.1932 32.8055 30.9324 32.1803 32.5398C31.5792 34.1471 30.7015 35.5745 29.5473 36.822L34.1642 41.6439L27.6716 42.6515L25.1828 40.0966C24.1248 40.5764 22.9946 40.9482 21.7923 41.2121C20.614 41.5 19.3636 41.6439 18.041 41.6439C15.8288 41.6439 13.7968 41.2841 11.9453 40.5644C10.1177 39.8207 8.5427 38.8011 7.22015 37.5057C5.89759 36.2102 4.8636 34.6989 4.11816 32.9716C3.37272 31.2203 3 29.3371 3 27.322ZM10.3943 27.322C10.3943 28.4015 10.5987 29.3971 11.0075 30.3087C11.4162 31.2203 11.9693 32.012 12.6667 32.6837C13.364 33.3554 14.1696 33.8832 15.0833 34.267C16.0211 34.6269 17.007 34.8068 18.041 34.8068C18.6662 34.8068 19.2915 34.7348 19.9167 34.5909L15.8769 30.3447L22.5497 29.517L24.4254 31.4962C25.291 30.2967 25.7239 28.9053 25.7239 27.322C25.7239 26.2424 25.5195 25.2468 25.1107 24.3352C24.7019 23.4236 24.1368 22.6319 23.4154 21.9602C22.7181 21.2885 21.9005 20.7727 20.9627 20.4129C20.0489 20.029 19.075 19.8371 18.041 19.8371C17.007 19.8371 16.0211 20.029 15.0833 20.4129C14.1696 20.7727 13.364 21.2885 12.6667 21.9602C11.9693 22.6319 11.4162 23.4236 11.0075 24.3352C10.5987 25.2468 10.3943 26.2424 10.3943 27.322Z" fill="black"/>
<path d="M42.6406 36.5341L34.1642 23.8674H42.893L46.5721 30.8845L51.1169 23.8674H59.8458L50.8644 36.5341L61 51H52.3794L46.9328 42.1477L40.5485 51H32L42.6406 36.5341Z" fill="black"/>
</svg>
